<svg width="93" height="78" viewBox="0 0 93 78" fill="none" xmlns="http://www.w3.org/2000/svg">
<g clip-path="url(#clip0_4021_10479)">
<path d="M59.1978 32.4381C58.9645 31.7915 57.853 30.2508 57.4825 30.0444C57.1531 29.8793 55.7946 30.182 55.3693 30.5397C55.1634 30.7047 55.0811 30.7047 54.7243 30.4984C54.5048 30.3746 54.148 30.2645 53.9421 30.2645C53.4756 30.2645 52.6934 30.7735 52.4739 31.2137C52.1994 31.764 52.0348 31.8465 51.7603 31.5989C51.3898 31.255 51.1428 31.4063 50.5116 32.3968C50.0176 33.1672 49.949 33.3598 49.949 34.0889C49.949 34.6254 50.0176 34.9693 50.1411 35.0656C50.2509 35.1619 50.3744 35.4508 50.4293 35.7121C50.539 36.3587 50.8684 36.4688 51.2526 35.9873L51.5545 35.6158L52.0485 36.3725C52.5562 37.1291 52.6523 37.1979 53.654 37.3354C53.9147 37.3767 54.3264 37.4455 54.5734 37.5005C54.889 37.5555 55.1909 37.5005 55.6163 37.2942C55.9593 37.1291 56.5631 36.964 56.961 36.909C57.7706 36.8127 58.0863 36.5926 58.7449 35.6709C59.0056 35.2994 59.1429 34.928 59.1429 34.6116C59.1429 34.3502 59.2115 34.0889 59.2801 34.0476C59.4722 33.9375 59.431 33.0571 59.1978 32.4381ZM53.3109 36.1799C53.0502 36.1799 52.913 35.8497 53.0228 35.5471C53.0914 35.3682 53.1463 35.3545 53.3109 35.492C53.5854 35.7121 53.5716 36.1799 53.3109 36.1799ZM50.9095 35.0106C50.6763 35.1619 50.4704 34.9418 50.6488 34.7217C50.7311 34.6254 50.8546 34.5703 50.9233 34.6116C51.0879 34.7079 51.0742 34.9005 50.9095 35.0106Z" fill="white"/>
<path d="M57.9353 25.3948C57.8118 24.872 57.455 24.6519 57.1531 24.8995C57.0296 25.0096 56.5905 25.1059 56.1651 25.1334C55.5065 25.1746 55.4241 25.1471 55.4653 24.9408C55.5065 24.7482 55.6574 24.6932 56.1651 24.6794C56.8924 24.6657 57.3178 24.418 56.865 24.2805C56.7277 24.2254 56.467 24.1291 56.2886 24.0604C55.7672 23.854 55.4378 23.9228 55.1085 24.2805C54.7792 24.6381 54.3538 24.7207 54.1205 24.4868C53.9147 24.2805 53.3109 24.5694 53.0227 24.9958C52.913 25.1884 52.4876 25.4773 52.0896 25.6561C51.28 26.0138 51.184 26.1651 51.184 27.0455C51.184 27.8572 51.3212 28.1048 52.0073 28.4075C52.4876 28.6276 52.6111 28.6276 52.913 28.4762C53.2011 28.3112 53.3246 28.3112 53.6951 28.4625C54.4636 28.7926 55.0948 28.7926 56.0279 28.4762C57.2492 28.0635 57.8667 27.417 57.9627 26.4815C57.9902 26.1101 57.9902 25.6149 57.9353 25.3948Z" fill="white"/>
<path d="M54.3811 21.0064C54.2576 20.7313 54.1204 20.4974 54.0518 20.4974C53.9969 20.4974 53.7225 20.3048 53.448 20.0709C52.9952 19.672 52.8991 19.6445 52.2953 19.7133C51.9111 19.7545 51.2799 19.9884 50.8545 20.2223C50.2233 20.5799 50.0586 20.7588 49.9214 21.199C49.8391 21.5154 49.6058 21.8731 49.3725 22.0244C48.9334 22.3408 48.8785 22.7122 49.2353 23.1112C49.3588 23.2625 49.5783 23.5101 49.7156 23.6752C49.9077 23.8815 50.0586 23.9366 50.2645 23.8678C50.4291 23.8127 50.9094 23.7165 51.3211 23.6614C52.2679 23.5239 52.6933 23.3588 53.0226 22.9874C53.1736 22.836 53.4206 22.6985 53.5715 22.6985C53.9832 22.6985 54.1478 22.5609 54.3811 21.9969C54.5595 21.5704 54.5595 21.4604 54.3811 21.0064ZM53.1461 21.0477C52.9403 21.0339 52.5561 20.6762 52.6521 20.5937C52.858 20.3874 53.2422 20.5112 53.2422 20.7725C53.2422 20.9239 53.201 21.0477 53.1461 21.0477Z" fill="white"/>
<path d="M50.6488 28.3386C50.4979 28.3386 50.2509 27.7058 50.196 27.2106L50.1548 26.8254L49.4961 27.2656C49.0159 27.5683 48.8512 27.7746 48.8786 27.9672C48.9335 28.2836 50.2646 29.054 50.5665 28.9302C50.786 28.8476 50.8546 28.3386 50.6488 28.3386Z" fill="white"/>
<path d="M49.2629 18.1587C48.2612 17.2095 46.3675 17.3746 45.0913 18.5164C44.7071 18.8466 44.2817 19.218 44.1582 19.3281C43.7877 19.6445 43.8426 20.0847 44.2406 20.0847C44.4876 20.0847 44.5836 20.1672 44.6248 20.4011C44.6797 20.7725 45.1737 20.8825 45.6402 20.6212C45.9147 20.4836 46.0519 20.4974 46.5047 20.69C47.1222 20.9788 47.5202 20.8963 48.0142 20.4148C48.1926 20.236 48.4258 20.0847 48.5356 20.0847C48.8101 20.0847 49.6746 19.1079 49.6746 18.8053C49.6746 18.654 49.4824 18.3651 49.2629 18.1587Z" fill="white"/>
<path d="M48.5629 23.689C48.4257 23.3175 47.9866 23.3313 47.918 23.7027C47.8219 24.1704 48.4531 24.5969 48.6178 24.1842C48.6452 24.0879 48.6178 23.8678 48.5629 23.689Z" fill="white"/>
<path d="M48.4807 32.9609C48.3434 32.9196 48.0964 32.6445 47.9455 32.3693C47.6985 31.9154 47.6436 31.6127 47.6299 30.1958C47.6162 28.6 47.6024 28.5312 47.2594 28.2424C47.0673 28.0635 46.7928 27.926 46.6556 27.926C46.5047 27.926 46.2851 27.7609 46.1479 27.5545C46.0107 27.3344 45.8323 27.1143 45.7499 27.0318C45.6676 26.963 45.5578 26.5916 45.5029 26.2201C45.3932 25.381 44.9129 24.4593 44.4738 24.2805C43.1976 23.7577 43.0467 23.6201 42.7997 22.7535C42.4566 21.6254 42.1822 21.3916 41.1118 21.3778C40.0689 21.3641 38.7104 20.9101 37.8597 20.2773C37.0912 19.7133 36.6658 19.6857 35.6229 20.1535C34.8682 20.4836 34.8133 20.4974 34.1958 20.291C33.839 20.1672 33.4137 20.0159 33.249 19.9196C33.002 19.7958 32.8922 19.8233 32.5766 20.0709C32.3708 20.2223 32.0689 20.3598 31.9042 20.3598C31.7395 20.3598 31.4925 20.4699 31.369 20.6212C31.2044 20.8 30.8888 20.8963 30.285 20.9376C29.5303 20.9789 29.297 21.0752 28.1443 21.8043C27.4445 22.2582 26.6761 22.7947 26.4428 23.0148C26.2232 23.2212 25.9762 23.3863 25.9213 23.3863C25.5097 23.3863 23.8767 24.9958 23.8767 25.3947C23.8767 25.4773 23.712 25.9175 23.5199 26.3439C23.1357 27.1693 22.4633 27.926 21.0225 29.0953C20.5697 29.4667 20.158 29.8794 20.1306 30.017C20.0345 30.3471 19.7601 30.3334 19.7601 29.9894C19.7601 29.8381 19.8149 29.7143 19.8836 29.7143C19.9522 29.7143 20.0619 29.5767 20.1168 29.4117C20.158 29.2328 20.6657 28.6275 21.2146 28.0498C21.7772 27.472 22.2301 26.9355 22.2301 26.8529C22.2301 26.7704 22.2712 26.6053 22.3261 26.4815C22.3947 26.2752 22.3398 26.2614 21.9419 26.3439C21.6812 26.399 21.2969 26.5916 21.0637 26.7566C20.8441 26.9217 20.3501 27.2106 19.9659 27.3894C19.5954 27.5683 19.0191 27.9535 18.6897 28.2561C18.1134 28.7926 18.0859 28.8064 17.5233 28.6551C17.0705 28.5312 16.8784 28.545 16.5765 28.6963C16.3707 28.8064 16.1237 28.8889 16.0276 28.8889C15.9316 28.8889 15.5473 29.0402 15.1631 29.2053C14.6417 29.4529 14.3809 29.508 14.0653 29.4254C13.736 29.3291 13.5439 29.3842 13.0362 29.7143C12.6931 29.9344 12.254 30.1683 12.0619 30.2371C11.8698 30.3196 11.513 30.5535 11.266 30.7598C10.8543 31.1037 10.772 31.1175 10.4015 30.9799C10.0447 30.8424 9.93494 30.8699 9.63305 31.09C9.42722 31.2688 9.08416 31.3651 8.72738 31.3651C8.26083 31.3651 8.06872 31.4614 7.58844 31.9291C7.21794 32.273 6.99838 32.6032 6.99838 32.8096C6.99838 33.1535 6.76511 33.291 6.17505 33.291C5.85944 33.291 5.66733 33.4699 4.98122 34.4328C4.52838 35.0519 4.103 35.8085 4.02066 36.1111C3.78738 36.9503 3.81483 37.982 4.07555 38.2709C4.2265 38.436 4.29511 38.7387 4.26766 39.1926C4.24022 40.1281 4.74794 41.036 5.96922 42.2328C6.82 43.0445 7.03955 43.1958 7.314 43.127C7.561 43.0582 7.72566 43.127 7.94522 43.3609C8.23338 43.6635 9.24883 44.1037 10.031 44.2551C10.2368 44.2963 10.5662 44.2275 10.7857 44.1175C11.0739 43.9799 11.5679 43.9387 12.6382 43.9662L14.0928 44.0074L14.477 43.6085C14.6966 43.3746 14.9436 43.1958 15.0259 43.1958C15.1082 43.1958 15.4787 43.0032 15.8355 42.7831C16.3021 42.4805 16.6314 42.3704 17.0019 42.3842C17.5782 42.4254 17.8389 42.3016 17.8389 42.0127C17.8389 41.5588 18.2643 41.0222 18.8269 40.7471C19.7463 40.3207 20.0619 39.7704 20.1854 38.4498C20.2815 37.3217 20.3913 36.8678 20.5834 36.8678C20.7206 36.8678 20.8578 37.3767 20.8578 37.927C20.8578 38.326 21.146 38.7937 21.3793 38.7937C21.5988 38.7799 21.8458 38.5323 22.0654 38.0921C22.3124 37.6106 22.5045 37.5556 23.3553 37.7619C23.6572 37.8445 23.8218 37.7619 24.3158 37.308C25.1392 36.5514 25.3724 36.4551 26.4153 36.4413C27.321 36.4138 27.3347 36.4138 27.5268 35.9598C27.6366 35.6984 27.7601 35.4921 27.815 35.4921C27.8562 35.4921 28.1581 35.7397 28.4874 36.0424C29.4617 36.9365 30.0105 36.7164 29.2696 35.726C28.3639 34.5429 28.062 33.8413 28.4325 33.8413C28.5148 33.8413 28.9677 34.2402 29.4205 34.7355C29.8871 35.2307 30.7516 35.9461 31.3553 36.3312C32.4394 37.0191 32.4668 37.0191 33.2764 36.9503C34.0723 36.8678 34.0998 36.8815 34.6075 37.3767C35.0054 37.7757 35.2113 37.872 35.5955 37.8582C35.8562 37.8445 36.1169 37.8995 36.1581 37.9683C36.2953 38.1884 37.2147 38.6148 37.791 38.7111C38.0929 38.7662 38.5458 38.9588 38.8202 39.1514C39.0947 39.3302 39.3965 39.4815 39.4926 39.4815C39.5887 39.4815 39.8219 39.5778 40.0003 39.7016C40.3571 39.9355 40.6178 39.8667 40.6178 39.5365C40.6178 39.2752 41.4274 38.7937 41.8803 38.7937C42.0724 38.7937 42.4154 38.6561 42.6213 38.491C43.4858 37.7894 44.6933 36.4688 44.858 36.0286C44.954 35.7672 45.1187 35.382 45.2148 35.1482C45.3245 34.9281 45.448 34.364 45.5167 33.9101C45.599 33.3185 45.6813 33.0847 45.8323 33.0847C46.189 33.0847 46.2577 34.708 45.9558 35.6297C45.5304 36.8953 45.6539 37.4868 46.2165 36.8815C46.4498 36.6339 47.8494 35.0932 48.2474 34.6529C48.4532 34.4191 48.7139 33.6625 48.7139 33.2635C48.7139 33.1397 48.6042 33.0021 48.4807 32.9609ZM39.2456 37.9683C38.9712 37.817 38.8614 37.5556 39.0809 37.5556C39.2319 37.5556 39.52 37.8582 39.52 37.9958C39.52 38.0646 39.3965 38.0508 39.2456 37.9683ZM25.8253 33.6762C25.6606 33.7037 25.5234 33.6625 25.5234 33.5799C25.5234 33.4011 26.0037 33.1397 26.1272 33.2498C26.2918 33.4148 26.1272 33.6349 25.8253 33.6762ZM14.3809 43.0307C14.2849 42.9894 14.2026 42.8519 14.2026 42.7143C14.2026 42.5767 14.2849 42.4392 14.3809 42.4117C14.477 42.3704 14.5456 42.4805 14.5456 42.7143C14.5456 42.9482 14.477 43.0582 14.3809 43.0307ZM11.7326 43.0582C11.6228 43.0582 11.5267 43.0032 11.5267 42.9207C11.5267 42.8519 11.6228 42.7831 11.7326 42.7831C11.8423 42.7831 11.9384 42.8519 11.9384 42.9207C11.9384 43.0032 11.8423 43.0582 11.7326 43.0582ZM5.96922 36.9365C5.94177 37.1704 5.91433 37.4043 5.91433 37.4868C5.88688 37.7619 5.55755 37.2392 5.53011 36.8953C5.51638 36.6889 5.47522 36.3725 5.42033 36.1799C5.35172 35.9323 5.40661 35.726 5.61244 35.4921L5.88688 35.1482L6.02411 35.4921C6.10644 35.6847 6.13388 35.9873 6.09272 36.1799C6.05155 36.3725 5.99666 36.7164 5.96922 36.9365Z" fill="white"/>
<path d="M44.1855 20.9101C44.1032 20.9101 43.9797 20.7587 43.9111 20.5661C43.7739 20.2085 43.3897 20.1122 43.1289 20.3736C42.9505 20.5524 43.0466 20.9101 43.2524 20.9101C43.321 20.9101 43.5406 21.0339 43.7327 21.1852C43.9248 21.3365 44.1307 21.4191 44.1993 21.3778C44.3639 21.2815 44.3502 20.9101 44.1855 20.9101Z" fill="white"/>
<path d="M43.3486 16.4529C43.1153 16.1502 42.9507 16.0815 42.4292 16.0815C42.0724 16.0815 41.5098 16.0815 41.1805 16.0677C40.6316 16.0402 40.5355 16.0952 40.1239 16.5905C39.7945 16.9619 39.575 17.1132 39.3692 17.0857C38.9987 17.0169 38.834 17.2645 38.834 17.9111C38.834 18.2825 38.9026 18.4338 39.0947 18.5026C39.2457 18.5439 39.3966 18.6677 39.4378 18.7778C39.5338 19.0529 39.9455 19.0391 40.5355 18.7502C40.906 18.5852 41.0982 18.5577 41.3314 18.6677C41.798 18.8741 42.9644 18.3238 43.3486 17.7047C43.7054 17.1132 43.7054 16.9206 43.3486 16.4529Z" fill="white"/>
<path d="M38.8888 18.8741C38.6418 18.5164 38.285 18.4751 38.285 18.7915C38.285 19.0391 38.6555 19.3831 38.9437 19.3968C39.1633 19.3968 39.1495 19.2455 38.8888 18.8741Z" fill="white"/>
</g>
<defs>
<clipPath id="clip0_4021_10479">
<rect width="78" height="92.625" fill="white" transform="matrix(0 1 -1 0 92.625 0)"/>
</clipPath>
</defs>
</svg>
